# xmcd
#
# Track frame offsets:
#	150
#	27802
#	94145
#	168140
#	177100
#	240685
#
# Disc length: 4176 seconds
#
# Revision: 1
# Processed by: cddbd v1.5.2PL0 Copyright (c) Steve Scherf et al.
# Submitted via: CDmax 2.0
#
DISCID=3c104e06
DTITLE=Eric Clapton - Orchestra Night (disc2)
DYEAR=1990
DGENRE=Blues
TTITLE0=White Room
TTITLE1=Concerto for Electric Guitar 1st Movement
TTITLE2=Concerto for Electric Guitar 2nd Movement
TTITLE3=Band Introduction
TTITLE4=Layla
TTITLE5=Sunshine of Your Love
EXTD=Eric Clapton\tguitar, vocals\nPhil Palmer\tguitar\nAlan Clark\tkeyboards
EXTD=\nGreg Phillinganes\tkeyboards\nNathan East\tbass\nSteve Ferrone\tdrums\
EXTD=nRay Cooper\tpercussion\nTessa Niles\tbackground vocals\nKatie Kissoon\t
EXTD=background vocals\n\nThe National Philharmonic Orchestra conducted by Mi
EXTD=chael Kamen\n\nRecorded at Royal Albert Hall, London, UK on February 10
EXTD=, 1990
EXTT0=
EXTT1=
EXTT2=
EXTT3=
EXTT4=
EXTT5=
PLAYORDER=
